<?xml version="1.0" standalone="no"?><!DOCTYPE svg PUBLIC "-//W3C//DTD SVG 1.1//EN" "http://www.w3.org/Graphics/SVG/1.1/DTD/svg11.dtd"><svg t="1539331005783" class="icon" style="" viewBox="0 0 1024 1024" version="1.1" xmlns="http://www.w3.org/2000/svg" p-id="1488" xmlns:xlink="http://www.w3.org/1999/xlink" width="200" height="200"><defs><style type="text/css"></style></defs><path d="M512 1024C229.181 1024 0 794.819 0 512 0 229.181 229.181 0 512 0c282.819 0 512 229.181 512 512 0 282.819-229.181 512-512 512z m-35.405-559h-185.93c-25.701 0.08-46.531 20.867-46.665 46.568a46.47 46.47 0 0 0 46.665 46.567h185.93v185.93c0.08 25.7 20.866 46.531 46.567 46.665 25.893 0 46.568-20.87 46.568-46.665v-185.93h185.929c25.701-0.08 46.531-20.866 46.665-46.567 0-25.893-20.87-46.568-46.665-46.568h-185.93V279.071c-0.08-25.701-20.866-46.531-46.567-46.665a46.47 46.47 0 0 0-46.567 46.665V465z" p-id="1489" fill="#ff9800"></path></svg>